<svg width="151" height="56" viewBox="0 0 151 56" fill="none" xmlns="http://www.w3.org/2000/svg">
<path d="M7.14286 50.111C7.14286 51.0098 7.85714 51.9086 8.92857 51.9086H16.0714C17.1429 51.9086 17.8571 51.0098 17.8571 50.111V48.3135H7.14286V50.111ZM12.5 15.957C5.53571 15.957 0 21.5295 0 28.5401C0 32.8543 2.14286 36.6292 5.35714 38.7863V42.9207C5.35714 43.8195 6.07143 44.7183 7.14286 44.7183H17.8571C18.9286 44.7183 19.6429 43.8195 19.6429 42.9207V38.7863C22.8571 36.4494 25 32.6745 25 28.5401C25 21.5295 19.4643 15.957 12.5 15.957Z" fill="#2B64B5"/>
<path d="M51.2344 40.4297C50.6875 41.1328 50.0859 41.7891 49.4297 42.3984C48.7891 43.0078 48.0859 43.5391 47.3203 43.9922C46.5703 44.4453 45.7734 44.8047 44.9297 45.0703C44.0859 45.3359 43.2109 45.4688 42.3047 45.4688C41.1484 45.4688 40.0859 45.2656 39.1172 44.8594C38.1484 44.4375 37.3125 43.8672 36.6094 43.1484C35.9062 42.4141 35.3594 41.5547 34.9688 40.5703C34.5781 39.5703 34.3828 38.5 34.3828 37.3594C34.3828 36.4219 34.5156 35.5 34.7812 34.5938C35.0469 33.6875 35.4219 32.8359 35.9062 32.0391C36.3906 31.2422 36.9609 30.5078 37.6172 29.8359C38.2891 29.1484 39.0234 28.5625 39.8203 28.0781C40.6172 27.5938 41.4609 27.2188 42.3516 26.9531C43.2422 26.6719 44.1562 26.5312 45.0938 26.5312C45.75 26.5312 46.3672 26.6094 46.9453 26.7656C47.5391 26.9219 48.0625 27.1719 48.5156 27.5156C48.9688 27.8438 49.3281 28.2734 49.5938 28.8047C49.8594 29.3203 49.9922 29.9375 49.9922 30.6562C49.9922 31.25 49.8125 31.875 49.4531 32.5312C49.1094 33.1875 48.6484 33.8438 48.0703 34.5C47.5078 35.1562 46.8672 35.8047 46.1484 36.4453C45.4297 37.0703 44.6953 37.6562 43.9453 38.2031C43.2109 38.7344 42.5 39.2031 41.8125 39.6094C41.125 40.0156 40.5234 40.3281 40.0078 40.5469C40.5859 41.2656 41.2578 41.8516 42.0234 42.3047C42.7891 42.7578 43.6016 42.9844 44.4609 42.9844C45.0078 42.9844 45.5625 42.8828 46.125 42.6797C46.6875 42.4609 47.2266 42.1875 47.7422 41.8594C48.2734 41.5312 48.7734 41.1719 49.2422 40.7812C49.7266 40.3906 50.1562 40.0234 50.5312 39.6797L51.2344 40.4297ZM45.5859 31.5234C45.5859 31.1641 45.5234 30.8203 45.3984 30.4922C45.2891 30.1641 45.125 29.8828 44.9062 29.6484C44.6875 29.3984 44.4219 29.2031 44.1094 29.0625C43.8125 28.9062 43.4688 28.8281 43.0781 28.8281C42.375 28.8281 41.7266 29.0781 41.1328 29.5781C40.5391 30.0625 40.0234 30.6641 39.5859 31.3828C39.1641 32.1016 38.8281 32.8672 38.5781 33.6797C38.3438 34.4766 38.2266 35.1797 38.2266 35.7891C38.2266 36.3828 38.3203 36.9922 38.5078 37.6172C38.6953 38.2422 38.9531 38.8438 39.2812 39.4219C39.9062 39.0781 40.5859 38.6016 41.3203 37.9922C42.0547 37.3828 42.7344 36.7188 43.3594 36C44 35.2656 44.5312 34.5078 44.9531 33.7266C45.375 32.9453 45.5859 32.2109 45.5859 31.5234ZM73.9688 42.2578C73.7812 42.6641 73.5391 43.0469 73.2422 43.4062C72.9453 43.7656 72.6094 44.0859 72.2344 44.3672C71.875 44.6484 71.4844 44.8672 71.0625 45.0234C70.6406 45.1953 70.2031 45.2812 69.75 45.2812C68.5156 45.2812 67.6172 44.9453 67.0547 44.2734C66.5078 43.5859 66.2344 42.6562 66.2344 41.4844V31.9453C66.2344 31.8359 66.2266 31.7109 66.2109 31.5703C66.2109 31.4141 66.1875 31.2734 66.1406 31.1484C66.0938 31.0078 66.0312 30.8906 65.9531 30.7969C65.875 30.7031 65.7656 30.6562 65.625 30.6562C65.1875 30.6562 64.7422 30.9219 64.2891 31.4531C63.8516 31.9844 63.4219 32.6719 63 33.5156C62.5938 34.3594 62.2109 35.3047 61.8516 36.3516C61.5078 37.3984 61.2031 38.4375 60.9375 39.4688C60.6719 40.4844 60.4609 41.4375 60.3047 42.3281C60.1641 43.2188 60.0938 43.9297 60.0938 44.4609L55.8281 45.9609V30.2109C55.8281 29.8984 55.75 29.6172 55.5938 29.3672C55.4375 29.1016 55.1953 28.9688 54.8672 28.9688C54.4766 28.9688 54.1172 29.1172 53.7891 29.4141C53.4766 29.6953 53.2266 29.9766 53.0391 30.2578L52.4062 29.5547C52.5938 29.1641 52.8281 28.7891 53.1094 28.4297C53.4062 28.0547 53.7344 27.7266 54.0938 27.4453C54.4688 27.1641 54.8672 26.9453 55.2891 26.7891C55.7266 26.6172 56.1797 26.5312 56.6484 26.5312C57.8672 26.5312 58.7422 26.875 59.2734 27.5625C59.8203 28.2344 60.0938 29.1484 60.0938 30.3047V37.9453C60.2344 37.3047 60.4219 36.5781 60.6562 35.7656C60.9062 34.9375 61.2031 34.1016 61.5469 33.2578C61.8906 32.4141 62.2734 31.5938 62.6953 30.7969C63.1328 29.9844 63.6094 29.2656 64.125 28.6406C64.6406 28 65.2031 27.4922 65.8125 27.1172C66.4219 26.7266 67.0781 26.5312 67.7812 26.5312C68.5156 26.5312 69.0703 26.6953 69.4453 27.0234C69.8203 27.3359 70.0859 27.7422 70.2422 28.2422C70.4141 28.7266 70.5078 29.2656 70.5234 29.8594C70.5391 30.4531 70.5469 31.0234 70.5469 31.5703V41.6016C70.5469 41.9141 70.625 42.2031 70.7812 42.4688C70.9375 42.7188 71.1797 42.8438 71.5078 42.8438C71.8672 42.8438 72.2031 42.7031 72.5156 42.4219C72.8438 42.125 73.1016 41.8359 73.2891 41.5547L73.9688 42.2578ZM92.4844 40.4297C91.9375 41.1328 91.3359 41.7891 90.6797 42.3984C90.0391 43.0078 89.3359 43.5391 88.5703 43.9922C87.8203 44.4453 87.0234 44.8047 86.1797 45.0703C85.3359 45.3359 84.4609 45.4688 83.5547 45.4688C82.3984 45.4688 81.3359 45.2656 80.3672 44.8594C79.3984 44.4375 78.5625 43.8672 77.8594 43.1484C77.1562 42.4141 76.6094 41.5547 76.2188 40.5703C75.8281 39.5703 75.6328 38.5 75.6328 37.3594C75.6328 36.4219 75.7656 35.5 76.0312 34.5938C76.2969 33.6875 76.6719 32.8359 77.1562 32.0391C77.6406 31.2422 78.2109 30.5078 78.8672 29.8359C79.5391 29.1484 80.2734 28.5625 81.0703 28.0781C81.8672 27.5938 82.7109 27.2188 83.6016 26.9531C84.4922 26.6719 85.4062 26.5312 86.3438 26.5312C87 26.5312 87.6172 26.6094 88.1953 26.7656C88.7891 26.9219 89.3125 27.1719 89.7656 27.5156C90.2188 27.8438 90.5781 28.2734 90.8438 28.8047C91.1094 29.3203 91.2422 29.9375 91.2422 30.6562C91.2422 31.25 91.0625 31.875 90.7031 32.5312C90.3594 33.1875 89.8984 33.8438 89.3203 34.5C88.7578 35.1562 88.1172 35.8047 87.3984 36.4453C86.6797 37.0703 85.9453 37.6562 85.1953 38.2031C84.4609 38.7344 83.75 39.2031 83.0625 39.6094C82.375 40.0156 81.7734 40.3281 81.2578 40.5469C81.8359 41.2656 82.5078 41.8516 83.2734 42.3047C84.0391 42.7578 84.8516 42.9844 85.7109 42.9844C86.2578 42.9844 86.8125 42.8828 87.375 42.6797C87.9375 42.4609 88.4766 42.1875 88.9922 41.8594C89.5234 41.5312 90.0234 41.1719 90.4922 40.7812C90.9766 40.3906 91.4062 40.0234 91.7812 39.6797L92.4844 40.4297ZM86.8359 31.5234C86.8359 31.1641 86.7734 30.8203 86.6484 30.4922C86.5391 30.1641 86.375 29.8828 86.1562 29.6484C85.9375 29.3984 85.6719 29.2031 85.3594 29.0625C85.0625 28.9062 84.7188 28.8281 84.3281 28.8281C83.625 28.8281 82.9766 29.0781 82.3828 29.5781C81.7891 30.0625 81.2734 30.6641 80.8359 31.3828C80.4141 32.1016 80.0781 32.8672 79.8281 33.6797C79.5938 34.4766 79.4766 35.1797 79.4766 35.7891C79.4766 36.3828 79.5703 36.9922 79.7578 37.6172C79.9453 38.2422 80.2031 38.8438 80.5312 39.4219C81.1562 39.0781 81.8359 38.6016 82.5703 37.9922C83.3047 37.3828 83.9844 36.7188 84.6094 36C85.25 35.2656 85.7812 34.5078 86.2031 33.7266C86.625 32.9453 86.8359 32.2109 86.8359 31.5234ZM108.586 42.4453C108.305 42.8828 107.961 43.2812 107.555 43.6406C107.148 43.9844 106.703 44.2812 106.219 44.5312C105.734 44.7812 105.227 44.9766 104.695 45.1172C104.164 45.2578 103.641 45.3281 103.125 45.3281C102.438 45.3281 101.844 45.2031 101.344 44.9531C100.859 44.6875 100.461 44.3438 100.148 43.9219C99.8359 43.5 99.6016 43.0078 99.4453 42.4453C99.3047 41.8828 99.2344 41.2969 99.2344 40.6875C99.2344 39.8906 99.3516 39.0391 99.5859 38.1328C99.8359 37.2109 100.164 36.3047 100.57 35.4141C100.992 34.5234 101.469 33.6953 102 32.9297C102.531 32.1641 103.094 31.5312 103.688 31.0312C103.141 31.3906 102.539 31.6719 101.883 31.875C101.242 32.0781 100.586 32.1797 99.9141 32.1797C99.4297 32.1797 99.0078 32.1406 98.6484 32.0625C98.2891 31.9844 97.8906 31.8359 97.4531 31.6172L95.0156 36.7031L94.0078 36.3047L96.5391 31.125C96.2734 30.9375 95.9844 30.7031 95.6719 30.4219C95.375 30.125 95.1562 29.8359 95.0156 29.5547L98.2734 25.8984C98.4141 26.3203 98.6094 26.75 98.8594 27.1875C99.1094 27.6094 99.3984 27.9922 99.7266 28.3359C100.07 28.6641 100.445 28.9375 100.852 29.1562C101.273 29.375 101.727 29.4844 102.211 29.4844C103.039 29.4844 103.844 29.3359 104.625 29.0391C105.406 28.7266 106.133 28.3516 106.805 27.9141L107.438 28.5469C106.844 29.0938 106.242 29.7031 105.633 30.375C105.039 31.0312 104.5 31.7344 104.016 32.4844C103.531 33.2344 103.141 34.0234 102.844 34.8516C102.547 35.6797 102.398 36.5156 102.398 37.3594C102.398 37.8438 102.461 38.3906 102.586 39C102.727 39.5938 102.938 40.1641 103.219 40.7109C103.5 41.2422 103.852 41.6953 104.273 42.0703C104.695 42.4297 105.203 42.6094 105.797 42.6094C106.203 42.6094 106.594 42.5391 106.969 42.3984C107.359 42.2422 107.711 42.0547 108.023 41.8359L108.586 42.4453ZM126.82 43.2656C126.82 44.1875 126.695 45.125 126.445 46.0781C126.195 47.0469 125.836 47.9922 125.367 48.9141C124.914 49.8359 124.367 50.7031 123.727 51.5156C123.086 52.3438 122.367 53.0625 121.57 53.6719C120.789 54.2812 119.938 54.7656 119.016 55.125C118.109 55.4844 117.164 55.6641 116.18 55.6641C115.555 55.6641 114.953 55.5625 114.375 55.3594C113.812 55.1562 113.305 54.8359 112.852 54.3984L115.945 51.4688C116.273 51.9062 116.656 52.2578 117.094 52.5234C117.531 52.7891 118.023 52.9219 118.57 52.9219C119.367 52.9219 120.016 52.7656 120.516 52.4531C121.016 52.1562 121.414 51.75 121.711 51.2344C122.008 50.7344 122.219 50.1562 122.344 49.5C122.469 48.8594 122.547 48.1953 122.578 47.5078C122.609 46.8203 122.609 46.1484 122.578 45.4922C122.562 44.8359 122.555 44.2422 122.555 43.7109V41.0156C122.273 41.5469 121.953 42.0781 121.594 42.6094C121.25 43.1406 120.852 43.6172 120.398 44.0391C119.961 44.4609 119.469 44.8047 118.922 45.0703C118.375 45.3359 117.766 45.4688 117.094 45.4688C116.078 45.4688 115.18 45.2734 114.398 44.8828C113.617 44.4922 112.961 43.9688 112.43 43.3125C111.898 42.6406 111.5 41.8594 111.234 40.9688C110.969 40.0781 110.836 39.1328 110.836 38.1328C110.836 37.2266 110.945 36.3125 111.164 35.3906C111.383 34.4531 111.688 33.5547 112.078 32.6953C112.484 31.8359 112.977 31.0312 113.555 30.2812C114.148 29.5312 114.805 28.8828 115.523 28.3359C116.258 27.7734 117.062 27.3359 117.938 27.0234C118.812 26.6953 119.742 26.5312 120.727 26.5312C121.32 26.5312 121.914 26.6016 122.508 26.7422C123.102 26.8828 123.664 27.1016 124.195 27.3984C124.742 27.6797 125.234 28.0312 125.672 28.4531C126.125 28.875 126.492 29.3672 126.773 29.9297L123.281 31.4062C123.094 31.1094 122.875 30.8125 122.625 30.5156C122.391 30.2031 122.125 29.9219 121.828 29.6719C121.547 29.4219 121.234 29.2188 120.891 29.0625C120.562 28.9062 120.219 28.8281 119.859 28.8281C119.328 28.8281 118.828 28.9531 118.359 29.2031C117.906 29.4531 117.484 29.7812 117.094 30.1875C116.719 30.5938 116.383 31.0625 116.086 31.5938C115.789 32.1094 115.539 32.6484 115.336 33.2109C115.133 33.7734 114.977 34.3281 114.867 34.875C114.773 35.4219 114.727 35.9141 114.727 36.3516C114.727 36.9453 114.781 37.6172 114.891 38.3672C115.016 39.1016 115.227 39.7969 115.523 40.4531C115.82 41.1094 116.211 41.6641 116.695 42.1172C117.18 42.5703 117.789 42.7969 118.523 42.7969C119.102 42.7969 119.602 42.6719 120.023 42.4219C120.445 42.1562 120.805 41.8203 121.102 41.4141C121.398 40.9922 121.641 40.5156 121.828 39.9844C122.031 39.4375 122.18 38.8828 122.273 38.3203C122.383 37.7578 122.453 37.2031 122.484 36.6562C122.531 36.0938 122.555 35.5938 122.555 35.1562V33.5391L126.82 32.0391V43.2656ZM147.281 43.0781C147.281 44.2031 147.141 45.2969 146.859 46.3594C146.578 47.4375 146.188 48.4453 145.688 49.3828C145.203 50.3359 144.625 51.2031 143.953 51.9844C143.281 52.7812 142.547 53.4609 141.75 54.0234C140.969 54.6016 140.141 55.0469 139.266 55.3594C138.391 55.6875 137.508 55.8516 136.617 55.8516C135.945 55.8516 135.312 55.7344 134.719 55.5C134.125 55.2812 133.562 54.9844 133.031 54.6094L135.656 51.2812C135.891 51.4688 136.148 51.6641 136.43 51.8672C136.727 52.0703 137.031 52.25 137.344 52.4062C137.656 52.5781 137.977 52.7109 138.305 52.8047C138.648 52.9141 138.984 52.9688 139.312 52.9688C139.906 52.9688 140.406 52.7891 140.812 52.4297C141.234 52.0703 141.578 51.6094 141.844 51.0469C142.109 50.4844 142.32 49.8438 142.477 49.125C142.633 48.4219 142.742 47.7188 142.805 47.0156C142.883 46.3125 142.93 45.6406 142.945 45C142.961 44.375 142.969 43.8594 142.969 43.4531V34.0078C142.844 34.5547 142.68 35.2188 142.477 36C142.273 36.7656 142.016 37.5781 141.703 38.4375C141.406 39.2812 141.062 40.125 140.672 40.9688C140.281 41.7969 139.836 42.5469 139.336 43.2188C138.852 43.8906 138.305 44.4375 137.695 44.8594C137.102 45.2656 136.453 45.4688 135.75 45.4688C135.031 45.4688 134.484 45.3125 134.109 45C133.75 44.6719 133.484 44.2656 133.312 43.7812C133.156 43.2812 133.07 42.7344 133.055 42.1406C133.039 41.5469 133.031 40.9766 133.031 40.4297V30.3047C133.031 30.0234 132.953 29.75 132.797 29.4844C132.641 29.2031 132.398 29.0625 132.07 29.0625C131.68 29.0625 131.32 29.2109 130.992 29.5078C130.68 29.7891 130.43 30.0703 130.242 30.3516L129.609 29.6484C129.797 29.2578 130.031 28.8828 130.312 28.5234C130.609 28.1484 130.938 27.8203 131.297 27.5391C131.672 27.2578 132.07 27.0391 132.492 26.8828C132.93 26.7109 133.383 26.625 133.852 26.625C135.07 26.625 135.945 26.9688 136.477 27.6562C137.023 28.3281 137.297 29.2422 137.297 30.3984V40.0547C137.297 40.1484 137.297 40.2734 137.297 40.4297C137.312 40.5703 137.344 40.7109 137.391 40.8516C137.438 40.9766 137.508 41.0938 137.602 41.2031C137.695 41.2969 137.82 41.3438 137.977 41.3438C138.273 41.3438 138.578 41.1719 138.891 40.8281C139.203 40.4844 139.5 40.0859 139.781 39.6328C140.062 39.1797 140.305 38.7266 140.508 38.2734C140.711 37.8203 140.859 37.4844 140.953 37.2656C141.234 36.5938 141.484 35.8594 141.703 35.0625C141.922 34.2656 142.109 33.4531 142.266 32.625C142.438 31.7812 142.578 30.9531 142.688 30.1406C142.812 29.3125 142.906 28.5234 142.969 27.7734L147.281 26.2734V43.0781Z" fill="black"/>
</svg>
