<svg width="18" height="19" viewBox="0 0 18 19" fill="none" xmlns="http://www.w3.org/2000/svg">
<path d="M5.4 15.3228C4.41 15.3228 3.609 16.1317 3.609 17.1203C3.609 18.109 4.41 18.9179 5.4 18.9179C6.39 18.9179 7.2 18.109 7.2 17.1203C7.2 16.1317 6.39 15.3228 5.4 15.3228ZM0 0.942139V2.73972H1.8L5.04 9.56153L3.825 11.7636C3.681 12.0152 3.6 12.3118 3.6 12.6264C3.6 13.6151 4.41 14.424 5.4 14.424H16.2V12.6264H5.778C5.652 12.6264 5.553 12.5275 5.553 12.4017L5.58 12.2939L6.39 10.8288H13.095C13.77 10.8288 14.364 10.4603 14.67 9.90307L17.892 4.06993C17.964 3.9441 18 3.7913 18 3.63851C18 3.14417 17.595 2.73972 17.1 2.73972H3.789L2.943 0.942139H0ZM14.4 15.3228C13.41 15.3228 12.609 16.1317 12.609 17.1203C12.609 18.109 13.41 18.9179 14.4 18.9179C15.39 18.9179 16.2 18.109 16.2 17.1203C16.2 16.1317 15.39 15.3228 14.4 15.3228Z" fill="#2B64B5"/>
</svg>
