<svg width="31" height="28" viewBox="0 0 31 28" fill="none" xmlns="http://www.w3.org/2000/svg">
<path d="M25 0.736002C26.7067 0.90667 27.9867 1.41867 28.84 2.272C29.608 3.21067 30.12 4.23467 30.376 5.344C30.632 6.53867 30.76 7.56267 30.76 8.416C30.76 10.464 30.0347 12.7253 28.584 15.2C27.1333 17.76 25.4267 20.1493 23.464 22.368C21.5013 24.5867 19.7093 26.1653 18.088 27.104C17.7467 27.2747 17.4907 27.36 17.32 27.36C16.808 27.36 16.552 27.0613 16.552 26.464C16.552 25.8667 16.7653 25.44 17.192 25.184C18.216 24.672 19.4533 23.5627 20.904 21.856C22.3547 20.1493 23.6773 18.3147 24.872 16.352C25.9813 14.3893 26.7493 12.6827 27.176 11.232C26.4933 11.9147 25.896 12.3413 25.384 12.512C24.872 12.768 24.0613 12.896 22.952 12.896C21.7573 12.896 20.7333 12.2987 19.88 11.104C19.0267 9.90934 18.6 8.8 18.6 7.776C18.6 6.15467 19.3253 4.53333 20.776 2.912C22.1413 1.376 23.5493 0.650668 25 0.736002ZM8.616 0.736001C10.3227 0.906668 11.6027 1.41867 12.456 2.272C13.224 3.21067 13.736 4.23467 13.992 5.344C14.248 6.53867 14.376 7.56267 14.376 8.416C14.376 10.464 13.6507 12.7253 12.2 15.2C10.7493 17.76 9.04267 20.1493 7.08 22.368C5.11733 24.5867 3.32533 26.1653 1.704 27.104C1.36267 27.2747 1.10667 27.36 0.936 27.36C0.424001 27.36 0.168002 27.0613 0.168002 26.464C0.168002 25.8667 0.381335 25.44 0.808002 25.184C1.832 24.672 3.06933 23.5627 4.52 21.856C5.97067 20.1493 7.29334 18.3147 8.488 16.352C9.59734 14.3893 10.3653 12.6827 10.792 11.232C10.1093 11.9147 9.512 12.3413 9 12.512C8.488 12.768 7.67734 12.896 6.568 12.896C5.37333 12.896 4.34934 12.2987 3.496 11.104C2.64267 9.90933 2.216 8.8 2.216 7.776C2.216 6.15466 2.94134 4.53333 4.392 2.912C5.75734 1.376 7.16534 0.650666 8.616 0.736001Z" fill="white"/>
</svg>
